<svg width="100" height="100" viewBox="0 0 100 100" fill="none" xmlns="http://www.w3.org/2000/svg">
  <defs>
    <linearGradient id="bg" x1="0" y1="0" x2="100" y2="100" gradientUnits="userSpaceOnUse">
      <stop stop-color="#0f172a"/>
      <stop offset="1" stop-color="#1e293b"/>
    </linearGradient>
    <linearGradient id="mark" x1="20" y1="12" x2="80" y2="88" gradientUnits="userSpaceOnUse">
      <stop stop-color="#38bdf8"/>
      <stop offset="1" stop-color="#009ee3"/>
    </linearGradient>
  </defs>
  <rect width="100" height="100" rx="24" fill="url(#bg)"/>
  <g stroke="url(#mark)">
    <circle cx="50" cy="50" r="34" stroke-width="2.5" opacity="0.9"/>
    <path d="M50,36 L64,46.4 L58.6,63.2 L41.4,63.2 L36,46.4 Z" stroke-width="2" stroke-linejoin="round" opacity="0.8"/>
    <g stroke-width="2" opacity="0.6" stroke-linecap="round">
      <line x1="50" y1="36" x2="50" y2="17"/>
      <line x1="64" y1="46.4" x2="80.9" y2="41"/>
      <line x1="58.6" y1="63.2" x2="69.1" y2="77.6"/>
      <line x1="41.4" y1="63.2" x2="30.9" y2="77.6"/>
      <line x1="36" y1="46.4" x2="19.1" y2="41"/>
    </g>
    <g stroke-width="2" stroke-linecap="round">
      <line x1="54.5" y1="50" x2="59" y2="50"/>
      <line x1="53.9" y1="52.25" x2="57.8" y2="54.5"/>
      <line x1="52.25" y1="53.9" x2="54.5" y2="57.8"/>
      <line x1="50" y1="54.5" x2="50" y2="59"/>
      <line x1="47.75" y1="53.9" x2="45.5" y2="57.8"/>
      <line x1="46.1" y1="52.25" x2="42.2" y2="54.5"/>
      <line x1="45.5" y1="50" x2="41" y2="50"/>
      <line x1="46.1" y1="47.75" x2="42.2" y2="45.5"/>
      <line x1="47.75" y1="46.1" x2="45.5" y2="42.2"/>
      <line x1="50" y1="45.5" x2="50" y2="41"/>
      <line x1="52.25" y1="46.1" x2="54.5" y2="42.2"/>
      <line x1="53.9" y1="47.75" x2="57.8" y2="45.5"/>
    </g>
  </g>
  <circle cx="50" cy="50" r="3.6" fill="url(#mark)"/>
</svg>
